<svg id="Capa_1" enable-background="new 0 0 512 512" height="512" viewBox="0 0 512 512" width="512" xmlns="http://www.w3.org/2000/svg"><g><path d="m123.817 437.748c.131 0 .264-.003.396-.01 7.523-.392 14.848-2.175 21.657-5.104 7.433 6.919 18.957 6.714 30.402-.86.195-.129.38-.249.556-.36 1.184 1.5 2.713 2.689 4.52 3.489 6.466 2.861 13.76-.456 15.841-1.542 3.175-1.655 6.262-3.507 9.229-5.534 1.584 4.027 4.761 6.94 8.824 7.721 3.863.745 7.165-.758 8.574-1.4 4.866-2.212 9.434-5.013 13.615-8.346 16.567 10.859 38.141 9.054 57.223 6.442 4.104-.562 6.976-4.343 6.414-8.447-.561-4.104-4.338-6.978-8.447-6.414-17.083 2.336-36.337 4.047-48.624-5.296-4.202-3.197-10.163-2.973-14.173.532-2.964 2.59-6.211 4.814-9.681 6.634-.616-3.47-2.801-6.451-6.046-8.086-3.928-1.979-8.517-1.512-11.979 1.217-3.702 2.92-7.693 5.503-11.863 7.676-.704.367-1.383.616-1.948.771-1.456-3.154-3.897-4.534-5.377-5.105-5.429-2.096-11.124 1.016-14.936 3.539-.685.453-2.611 1.665-4.819 2.502 8.674-7.521 15.379-17.264 18.91-28.304 1.796-5.615.151-11.727-4.189-15.57-4.723-4.182-12.84-5.7-21.458 2.572-9.057 8.694-15.083 20.251-16.968 32.542-.316 2.058-.372 4.094-.178 6.068-5.04 2.109-10.408 3.399-15.86 3.683-4.137.215-7.315 3.744-7.1 7.88.21 4.004 3.521 7.11 7.485 7.11zm43.01-46.462c.068-.065.135-.128.2-.188-2.346 6.161-6.09 11.785-10.787 16.53 2.196-6.133 5.824-11.769 10.587-16.342z"/><path d="m175.801 41.434h.964c4.142 0 7.5-3.358 7.5-7.5s-3.358-7.5-7.5-7.5h-.964c-4.142 0-7.5 3.358-7.5 7.5s3.357 7.5 7.5 7.5z"/><path d="m300.463 41.434h.964c4.142 0 7.5-3.358 7.5-7.5s-3.358-7.5-7.5-7.5h-.964c-4.142 0-7.5 3.358-7.5 7.5s3.358 7.5 7.5 7.5z"/><path d="m434.331 99.392c.002-.069.01-.137.01-.207v-71.685c0-15.164-12.336-27.5-27.5-27.5h-336.455c-15.164 0-27.5 12.336-27.5 27.5v349c0 4.142 3.358 7.5 7.5 7.5s7.5-3.358 7.5-7.5v-349c0-6.893 5.607-12.5 12.5-12.5h63.228v15.225h-41.364c-9.312 0-16.888 7.576-16.888 16.888v417.082c0 9.312 7.576 16.888 16.888 16.888h292.727c9.312 0 16.888-7.576 16.888-16.888v-72.695c0-4.142-3.358-7.5-7.5-7.5s-7.5 3.358-7.5 7.5v72.695c0 1.041-.847 1.888-1.888 1.888h-292.727c-1.041 0-1.888-.847-1.888-1.888v-417.082c0-1.041.847-1.888 1.888-1.888h41.364v5.142c0 9.649 7.851 17.5 17.5 17.5h5.678v11.903c0 12.81 10.421 23.23 23.23 23.23h117.183c12.809 0 23.23-10.421 23.23-23.23v-11.903h5.678c9.649 0 17.5-7.851 17.5-17.5v-5.142h41.363c1.041 0 1.888.847 1.888 1.888v43.321c-24.317 3.96-44.519 20.334-53.849 42.394h-215.503c-4.142 0-7.5 3.358-7.5 7.5s3.358 7.5 7.5 7.5h211.072c-.727 4.061-1.127 8.233-1.127 12.5 0 16.363 5.593 31.435 14.946 43.44h-148.233c-4.142 0-7.5 3.358-7.5 7.5s3.358 7.5 7.5 7.5h164.178c8.391 5.753 18.07 9.753 28.516 11.454v127.278c0 4.142 3.358 7.5 7.5 7.5s7.5-3.358 7.5-7.5v-126.435c6.055-.303 11.912-1.368 17.477-3.104v256.539c0 6.893-5.607 12.5-12.5 12.5h-336.455c-6.893 0-12.5-5.607-12.5-12.5v-74c0-4.142-3.358-7.5-7.5-7.5s-7.5 3.358-7.5 7.5v74c0 15.164 12.336 27.5 27.5 27.5h336.455c15.164 0 27.5-12.336 27.5-27.5v-263.242c20.797-12.354 34.772-35.036 34.772-60.93.001-25.899-13.98-48.584-34.782-60.936zm-105.717-49.025c0 1.378-1.122 2.5-2.5 2.5h-104.615c-4.142 0-7.5 3.358-7.5 7.5s3.358 7.5 7.5 7.5h83.937v11.903c0 4.538-3.692 8.23-8.23 8.23h-117.184c-4.538 0-8.23-3.692-8.23-8.23v-11.903h15.707c4.142 0 7.5-3.358 7.5-7.5s-3.358-7.5-7.5-7.5h-36.385c-1.378 0-2.5-1.122-2.5-2.5v-35.367h180zm56.363-20.142h-41.363v-15.225h63.227c6.893 0 12.5 5.607 12.5 12.5v65.195c-5.564-1.736-11.422-2.802-17.477-3.104v-42.478c.001-9.312-7.575-16.888-16.887-16.888zm-26.89 188.373c.013.009.027.017.04.026-.055-.008-.083-.017-.04-.026zm40.199-2.442c-30.784 0-55.828-25.044-55.828-55.828s25.044-55.828 55.828-55.828 55.828 25.044 55.828 55.828-25.044 55.828-55.828 55.828z"/><path d="m419.168 135.025-34.697 34.697-6.363-6.363c-2.929-2.929-7.678-2.929-10.606 0-2.929 2.929-2.929 7.678 0 10.606l11.667 11.667c1.464 1.464 3.384 2.197 5.303 2.197s3.839-.732 5.303-2.197l40-40c2.929-2.929 2.929-7.678 0-10.606-2.929-2.93-7.678-2.93-10.607-.001z"/><path d="m126.989 229.605h29c6.893 0 12.5-5.607 12.5-12.5v-29c0-6.893-5.607-12.5-12.5-12.5h-29c-6.893 0-12.5 5.607-12.5 12.5v29c0 6.893 5.607 12.5 12.5 12.5zm2.5-39h24v24h-24z"/><path d="m197.902 248.184c4.142 0 7.5-3.358 7.5-7.5s-3.358-7.5-7.5-7.5h-1.014c-4.142 0-7.5 3.358-7.5 7.5s3.358 7.5 7.5 7.5z"/><path d="m221.642 248.184c4.142 0 7.5-3.358 7.5-7.5s-3.358-7.5-7.5-7.5h-1.015c-4.142 0-7.5 3.358-7.5 7.5s3.358 7.5 7.5 7.5z"/><path d="m244.368 248.184h1.014c4.142 0 7.5-3.358 7.5-7.5s-3.358-7.5-7.5-7.5h-1.014c-4.142 0-7.5 3.358-7.5 7.5s3.358 7.5 7.5 7.5z"/><path d="m269.122 248.184c4.142 0 7.5-3.358 7.5-7.5s-3.358-7.5-7.5-7.5h-1.015c-4.142 0-7.5 3.358-7.5 7.5s3.358 7.5 7.5 7.5z"/><path d="m194.17 190.605h44.024c4.142 0 7.5-3.358 7.5-7.5s-3.358-7.5-7.5-7.5h-44.024c-4.142 0-7.5 3.358-7.5 7.5s3.358 7.5 7.5 7.5z"/><path d="m114.489 317.316c0 6.893 5.607 12.5 12.5 12.5h29c6.893 0 12.5-5.607 12.5-12.5v-29c0-6.893-5.607-12.5-12.5-12.5h-29c-6.893 0-12.5 5.607-12.5 12.5zm15-26.5h24v24h-24z"/><path d="m196.888 348.395h1.014c4.142 0 7.5-3.358 7.5-7.5s-3.358-7.5-7.5-7.5h-1.014c-4.142 0-7.5 3.358-7.5 7.5s3.358 7.5 7.5 7.5z"/><path d="m220.628 348.395h1.015c4.142 0 7.5-3.358 7.5-7.5s-3.358-7.5-7.5-7.5h-1.015c-4.142 0-7.5 3.358-7.5 7.5s3.358 7.5 7.5 7.5z"/><path d="m245.382 348.395c4.142 0 7.5-3.358 7.5-7.5s-3.358-7.5-7.5-7.5h-1.014c-4.142 0-7.5 3.358-7.5 7.5s3.358 7.5 7.5 7.5z"/><path d="m269.122 348.395c4.142 0 7.5-3.358 7.5-7.5s-3.358-7.5-7.5-7.5h-1.015c-4.142 0-7.5 3.358-7.5 7.5s3.358 7.5 7.5 7.5z"/><path d="m365.006 311.479c0-4.142-3.358-7.5-7.5-7.5h-163.336c-4.142 0-7.5 3.358-7.5 7.5s3.358 7.5 7.5 7.5h163.336c4.142 0 7.5-3.357 7.5-7.5z"/><path d="m186.67 283.316c0 4.142 3.358 7.5 7.5 7.5h44.024c4.142 0 7.5-3.358 7.5-7.5s-3.358-7.5-7.5-7.5h-44.024c-4.142 0-7.5 3.358-7.5 7.5z"/></g></svg>