<?xml version="1.0" standalone="no"?>
<!DOCTYPE svg PUBLIC "-//W3C//DTD SVG 20010904//EN"
 "http://www.w3.org/TR/2001/REC-SVG-20010904/DTD/svg10.dtd">
<svg version="1.0" xmlns="http://www.w3.org/2000/svg"
 width="512.000000pt" height="512.000000pt" viewBox="0 0 512.000000 512.000000"
 preserveAspectRatio="xMidYMid meet">
<metadata>
Created by potrace 1.16, written by Peter Selinger 2001-2019
</metadata>
<g transform="translate(0.000000,512.000000) scale(0.100000,-0.100000)"
fill="#000000" stroke="none">
<path d="M2033 3725 c-111 -30 -200 -100 -247 -194 l-26 -51 -143 0 c-125 0
-146 -3 -175 -20 -70 -43 -78 -136 -17 -197 l33 -33 150 0 150 0 26 -54 c35
-72 119 -148 194 -176 195 -75 398 3 491 188 12 23 27 42 34 41 7 -1 270 -1
586 0 l573 1 33 33 c61 61 53 154 -17 197 -32 19 -49 20 -610 20 l-578 0 -25
51 c-51 99 -150 174 -263 198 -67 14 -104 13 -169 -4z m184 -289 c75 -82 20
-206 -92 -206 -74 0 -125 51 -125 125 0 78 55 128 134 122 42 -4 55 -10 83
-41z"/>
<path d="M2878 2927 c-96 -36 -185 -113 -227 -196 l-21 -41 -573 0 c-535 0
-575 -1 -606 -18 -38 -20 -71 -73 -71 -112 0 -39 33 -92 71 -112 31 -17 71
-18 606 -18 l573 0 24 -47 c33 -66 109 -136 181 -170 53 -25 71 -28 160 -28
87 0 107 3 157 27 72 33 142 98 180 165 l30 53 135 0 c149 0 188 10 219 58 23
35 23 109 0 144 -31 48 -70 58 -220 58 l-136 0 -21 41 c-32 64 -107 138 -174
172 -52 27 -72 31 -155 34 -63 2 -107 -1 -132 -10z m166 -251 c18 -7 43 -26
55 -42 31 -39 26 -122 -9 -159 -51 -55 -139 -55 -191 1 -20 21 -24 36 -24 84
0 64 17 93 70 116 39 17 58 17 99 0z"/>
<path d="M2009 2131 c-100 -32 -185 -105 -230 -198 l-21 -43 -150 0 -150 0
-33 -33 c-61 -61 -53 -154 17 -197 29 -17 50 -20 175 -20 l141 0 23 -47 c69
-143 253 -235 406 -204 121 24 227 102 279 204 l24 47 578 0 c561 0 578 1 610
20 70 43 78 136 17 197 l-33 33 -585 0 -585 0 -23 48 c-81 166 -281 250 -460
193z m181 -256 c37 -19 60 -63 60 -115 0 -87 -106 -148 -185 -106 -60 33 -83
112 -50 176 29 56 113 77 175 45z"/>
</g>
</svg>
