<?xml version="1.0" encoding="iso-8859-1"?>
<!-- Generator: Adobe Illustrator 19.0.0, SVG Export Plug-In . SVG Version: 6.00 Build 0)  -->
<svg version="1.1" id="Capa_1" xmlns="http://www.w3.org/2000/svg" xmlns:xlink="http://www.w3.org/1999/xlink" x="0px" y="0px"
	 viewBox="0 0 512 512" style="enable-background:new 0 0 512 512;" xml:space="preserve">
<g>
	<g>
		<path d="M164.24,0C93.038,0,35.112,57.927,35.112,129.128v35.21c0,11.246,4.379,21.818,12.33,29.769
			c7.708,7.707,17.882,12.046,28.741,12.305c3.43,10.918,8.84,20.967,15.805,29.727c-14.163,9.992-26.238,22.887-35.22,37.72
			c-2.176,3.592-1.027,8.268,2.566,10.443c1.231,0.745,2.589,1.1,3.931,1.1c2.572,0,5.082-1.306,6.512-3.666
			c8.27-13.657,19.521-25.448,32.742-34.392c16.363,14.751,38.012,23.744,61.724,23.744c23.714,0,45.365-8.995,61.728-23.748
			c5.848,3.953,11.331,8.463,16.34,13.472c6.312,6.312,11.825,13.348,16.386,20.912c1.427,2.368,3.942,3.678,6.519,3.678
			c1.336,0,2.691-0.353,3.92-1.093c3.596-2.169,4.753-6.842,2.585-10.438c-5.196-8.618-11.473-16.63-18.656-23.813
			c-5.116-5.115-10.668-9.771-16.563-13.924c6.963-8.759,12.372-18.806,15.801-29.722c9.814-0.238,18.807-3.841,25.86-9.71v8.264
			c0,8.874-7.22,16.095-16.095,16.095c-4.2,0-7.604,3.405-7.604,7.604c0,4.199,3.404,7.604,7.604,7.604
			c17.26,0,31.303-14.043,31.303-31.303v-75.838C293.368,57.927,235.441,0,164.24,0z M58.194,183.355
			c-5.078-5.078-7.876-11.832-7.876-19.015c0-13.12,9.447-24.069,21.895-26.418c-0.164,2.245-0.25,4.51-0.25,6.795v34.094
			c0,4.082,0.27,8.103,0.786,12.046C67.263,189.946,62.206,187.365,58.194,183.355z M241.311,178.81
			c0,42.497-34.574,77.07-77.07,77.07c-42.496,0-77.07-34.573-77.07-77.069v-32.567c1.576,0.104,3.155,0.175,4.739,0.175
			c24.362,0,46.903-12.581,59.98-32.454c13.077,19.874,35.618,32.454,59.98,32.454c10.192,0,20.137-2.148,29.295-6.256
			c0.088,1.508,0.146,3.023,0.146,4.552V178.81z M88.403,131.089c6.455-36.016,37.993-63.443,75.839-63.443
			c35.496,0,65.447,24.128,74.357,56.84c-8.18,4.407-17.319,6.725-26.727,6.725c-23.374,0-44.619-14.697-52.865-36.57
			c-1.117-2.961-3.95-4.921-7.115-4.921s-5.999,1.961-7.115,4.921c-8.246,21.874-29.491,36.57-52.865,36.57
			C90.738,131.211,89.569,131.161,88.403,131.089z M255.733,190.852c0.516-3.943,0.786-7.961,0.786-12.042v-34.094
			c0-2.287-0.087-4.555-0.251-6.801c5.279,0.986,10.138,3.529,14.018,7.409c5.078,5.078,7.876,11.831,7.876,19.015
			C278.16,177.646,268.443,188.719,255.733,190.852z M278.16,131.95c-6.907-5.755-15.382-9.106-24.396-9.629
			c-10.033-40.095-46.363-69.882-89.524-69.882c-43.161,0-79.49,29.787-89.524,69.882c-9.245,0.542-17.698,4.079-24.399,9.656
			v-2.848C50.319,66.313,101.424,15.208,164.24,15.208S278.16,66.313,278.16,129.128V131.95z"/>
	</g>
</g>
<g>
	<g>
		<path d="M214.868,169.156c-4.397-4.399-10.245-6.821-16.465-6.821s-12.067,2.422-16.465,6.82c-2.97,2.97-2.969,7.784,0,10.754
			c2.971,2.97,7.783,2.969,10.754,0c1.525-1.526,3.554-2.365,5.711-2.365c2.158,0,4.186,0.84,5.712,2.365
			c1.484,1.484,3.431,2.227,5.376,2.227c1.946,0,3.892-0.742,5.377-2.227C217.838,176.939,217.838,172.124,214.868,169.156z"/>
	</g>
</g>
<g>
	<g>
		<path d="M146.545,169.155c-4.398-4.398-10.245-6.82-16.465-6.82s-12.067,2.422-16.465,6.82c-2.97,2.97-2.969,7.784,0,10.754
			c2.971,2.97,7.784,2.969,10.754,0c1.525-1.526,3.554-2.365,5.711-2.365s4.185,0.84,5.711,2.365
			c1.485,1.484,3.431,2.227,5.378,2.227c1.945-0.001,3.891-0.743,5.377-2.227C149.515,176.939,149.515,172.124,146.545,169.155z"/>
	</g>
</g>
<g>
	<g>
		<path d="M187.897,209.411c-2.97-2.971-7.784-2.97-10.754,0c-7.115,7.113-18.691,7.113-25.804,0c-2.97-2.97-7.784-2.97-10.753,0
			c-2.97,2.97-2.97,7.784,0,10.753c6.522,6.522,15.087,9.783,23.655,9.783c8.566,0,17.134-3.262,23.655-9.783
			C190.867,217.194,190.867,212.381,187.897,209.411z"/>
	</g>
</g>
<g>
	<g>
		<path d="M315.118,362.934c4.2,0,7.604-3.405,7.604-7.604v-32.608c-0.001-16.744-13.617-30.365-30.353-30.365H36.112
			c-16.737,0-30.353,13.621-30.353,30.364v158.914C5.758,498.379,19.374,512,36.112,512h256.257
			c16.737,0,30.353-13.621,30.353-30.364V380.678c0-4.199-3.404-7.604-7.604-7.604s-7.604,3.405-7.604,7.604v100.958
			c0,8.357-6.794,15.156-15.145,15.156H36.112c-8.351,0-15.145-6.799-15.145-15.156V322.722c0-8.357,6.794-15.156,15.145-15.156
			h256.257c8.35,0,15.145,6.799,15.145,15.156v32.608C307.514,359.529,310.917,362.934,315.118,362.934z"/>
	</g>
</g>
<g>
	<g>
		<path d="M164.24,370.243c-17.61,0-31.936,14.327-31.936,31.936c0,17.61,14.326,31.936,31.936,31.936
			c17.609,0,31.936-14.326,31.936-31.936S181.85,370.243,164.24,370.243z M164.24,418.906c-9.224,0-16.728-7.504-16.728-16.728
			s7.504-16.728,16.728-16.728c9.223,0,16.728,7.505,16.728,16.728C180.968,411.403,173.464,418.906,164.24,418.906z"/>
	</g>
</g>
<g>
	<g>
		<path d="M404.319,0.498c-23.039,0-44.776,7.014-62.862,20.285c-3.386,2.484-4.117,7.243-1.632,10.629
			c2.485,3.385,7.244,4.117,10.628,1.632c15.459-11.343,34.086-17.339,53.866-17.339c47.814,0,86.714,35.949,86.714,80.138
			c0,44.188-38.9,80.138-86.714,80.138c-7.047,0-14.073-0.789-20.883-2.345c-2.886-0.658-5.891,0.416-7.704,2.754
			c-6.655,8.584-20.999,13.573-33.313,16.236c5.296-9.282,8.451-18.895,10.307-26.515c0.723-2.962-0.395-6.07-2.839-7.895
			c-20.515-15.314-32.282-38.048-32.282-62.373c0-17.262,5.849-33.705,16.913-47.549c2.622-3.281,2.088-8.065-1.193-10.687
			c-3.282-2.623-8.066-2.089-10.688,1.193c-13.241,16.568-20.24,36.294-20.24,57.044c0,27.497,12.435,53.223,34.297,71.338
			c-2.828,9.594-7.866,21.348-16.714,30.196c-2.231,2.23-2.852,5.608-1.561,8.486c1.23,2.746,3.954,4.495,6.937,4.494
			c0.145,0,0.291-0.004,0.437-0.012c1.723-0.098,40.081-2.506,58.7-20.968c6.514,1.202,13.163,1.811,19.827,1.811
			c56.2,0,101.921-42.772,101.921-95.346C506.241,43.27,460.519,0.498,404.319,0.498z"/>
	</g>
</g>
<g>
	<g>
		<path d="M380.128,98.906c-2.858-1.693-6.538-1.323-9.012,0.887c-2.784,2.488-3.253,6.764-1.216,9.855
			c3.606,5.488,12.31,3.806,13.737-2.556C384.343,103.94,382.912,100.557,380.128,98.906z"/>
	</g>
</g>
<g>
	<g>
		<path d="M435.998,98.724c-2.864-1.519-6.47-1.046-8.824,1.195c-2.633,2.51-3.117,6.703-1.077,9.729
			c3.7,5.609,12.672,3.676,13.809-2.921C440.456,103.535,438.866,100.244,435.998,98.724z"/>
	</g>
</g>
<g>
	<g>
		<path d="M407.006,98.64c-2.739-1.379-6.147-0.937-8.448,1.088c-2.451,2.156-3.236,5.77-1.927,8.754
			c1.414,3.223,4.994,5.107,8.451,4.401c3.067-0.64,5.483-3.102,6.007-6.2C411.638,103.429,409.943,100.119,407.006,98.64z"/>
	</g>
</g>
<g>
</g>
<g>
</g>
<g>
</g>
<g>
</g>
<g>
</g>
<g>
</g>
<g>
</g>
<g>
</g>
<g>
</g>
<g>
</g>
<g>
</g>
<g>
</g>
<g>
</g>
<g>
</g>
<g>
</g>
</svg>
